<?xml version="1.0" encoding="UTF-8"?>
<svg width="114px" height="30px" viewBox="0 0 114 30" version="1.1" xmlns="http://www.w3.org/2000/svg" xmlns:xlink="http://www.w3.org/1999/xlink">
    <!-- Generator: Sketch 46.2 (44496) - http://www.bohemiancoding.com/sketch -->
    <title>Logo</title>
    <desc>Created with Sketch.</desc>
    <defs></defs>
    <g id="Symbols" stroke="none" stroke-width="1" fill="none" fill-rule="evenodd">
        <g id="molecules/navigation/top" transform="translate(-150.000000, -25.000000)">
            <g id="Logo" transform="translate(150.000000, 25.000000)">
                <path d="M41.37043,6.29080886 L41.37043,8.44684441 L40.1882306,8.44684441 C39.5366202,8.44684441 39.1746767,8.81021487 39.1746767,9.48858139 L39.1746767,10.9662504 L41.37043,10.9662504 L41.37043,13.4130948 L39.1746767,13.4130948 L39.1746767,23.7089661 L36.2791286,23.7089661 L36.2791286,13.4130948 L35,13.4130948 L35,10.9662504 L36.2791286,10.9662504 L36.2791286,9.41545731 C36.2791286,7.7201035 36.9542709,6 39.2710456,6 C39.9467482,6 40.8880255,6.14512319 41.37043,6.29080886 Z M42.6730345,10.9662504 L45.5685827,10.9662504 L45.5685827,23.7089661 L42.6730345,23.7089661 L42.6730345,10.9662504 Z M42.6730345,6.19406007 L45.5685827,6.19406007 L45.5685827,8.83440207 L42.6730345,8.83440207 L42.6730345,6.19406007 Z M48.174464,6.19406007 L51.0700121,6.19406007 L51.0700121,23.7089661 L48.174464,23.7089661 L48.174464,6.19406007 Z M62.5803203,17.3376645 L62.5803203,18.0644054 L56.1376136,18.0644054 C56.1617058,20.3419395 56.6682026,21.6255484 58.0918845,21.6255484 C59.0813462,21.6255484 59.7088643,20.7294971 59.7088643,19.2034537 L62.5803203,19.2034537 C62.5803203,22.4737878 60.6742338,23.9998313 58.0918845,23.9998313 C54.8343928,23.9998313 53.1210441,21.9163573 53.1210441,17.3376645 C53.1210441,12.7589718 54.858485,10.6754978 57.9955156,10.6754978 C61.0602695,10.6754978 62.5803203,12.7589718 62.5803203,17.3376645 Z M56.1617058,15.9567443 L59.5396585,15.9567443 C59.5396585,14.1157048 59.0572539,13.0497806 57.9955156,13.0497806 C56.7651317,13.0497806 56.2580747,14.1157048 56.1617058,15.9567443 Z M73.1973115,14.1398358 C73.1973115,14.4064574 73.1732193,14.6725166 73.1732193,14.6972663 L70.2289264,14.6972663 C70.2289264,13.5587805 69.6742452,13.0497244 68.8052445,13.0497244 C67.912712,13.0497244 67.309286,13.5340308 67.309286,14.3097086 C67.309286,16.7801777 73.5110706,14.8423895 73.5110706,19.8812015 C73.5110706,22.9822252 71.4839628,23.999775 68.7811523,23.999775 C65.861512,23.999775 64.1722554,22.3764203 64.1722554,19.9537631 C64.1722554,19.8328271 64.1963477,19.6629542 64.1963477,19.6629542 L67.1406405,19.6629542 L67.1406405,19.8328271 C67.1647327,21.1895601 68.0572653,21.6254922 68.8780815,21.6254922 C69.6501529,21.6254922 70.5667777,21.2863089 70.5667777,20.2445719 C70.5667777,17.5552931 64.3655535,19.4694566 64.3655535,14.5515806 C64.3655535,11.959613 66.3680088,10.6754416 68.9021737,10.6754416 C71.3153172,10.6754416 73.1973115,11.959613 73.1973115,14.1398358 Z M80.6048274,10.9661942 L80.6048274,13.4130386 L78.7710176,13.4130386 L78.7710176,20.5111374 C78.7710176,21.1895039 79.1329611,21.5528743 79.7845715,21.5528743 L80.6048274,21.5528743 L80.6048274,23.7089099 C80.1946994,23.8545956 79.422628,23.9997188 78.8673864,23.9997188 C76.5506117,23.9997188 75.8754694,22.2796153 75.8754694,20.5842614 L75.8754694,13.4130386 L74.5963408,13.4130386 L74.5963408,10.9661942 L75.8754694,10.9661942 L76.3096896,7.38086399 L78.7710176,7.38086399 L78.7710176,10.9661942 L80.6048274,10.9661942 Z M90.5223039,14.4308696 L90.5223039,20.7054787 C90.5223039,21.3107211 90.8601552,21.5531556 91.1980065,21.5531556 L91.77678,21.5531556 L91.77678,23.6124423 C91.4630209,23.7817527 90.9324319,24 90.0634313,24 C88.905324,24 88.1091604,23.3216335 87.8194935,22.3282709 L87.6990324,22.3282709 C86.9751454,23.3458207 86.1784214,24 84.4897252,24 C83.3069655,24 81.3045101,23.3700079 81.3045101,20.4146698 C81.3045101,16.9744628 83.9103914,15.956913 87.6021033,15.956913 L87.6021033,14.6243672 C87.6021033,13.7525031 87.3852733,13.0499494 86.2753505,13.0499494 C85.0925908,13.0499494 84.7552998,13.7766903 84.7552998,14.3824952 L84.7552998,14.7453032 L81.931468,14.7453032 C81.9073758,14.60018 81.9073758,14.4308696 81.9073758,14.2126223 C81.9073758,12.080774 83.5966323,10.6756666 86.2025136,10.6756666 C89.1468065,10.6756666 90.5223039,12.0565868 90.5223039,14.4308696 Z M84.2723349,20.1480481 C84.2723349,21.0199123 84.7065551,21.5773428 85.6960168,21.5773428 C87.0715142,21.5773428 87.6021033,20.2931713 87.6021033,18.7913151 L87.6021033,18.0645742 C85.913407,18.0645742 84.2723349,18.5005062 84.2723349,20.1480481 Z M102.104272,15.763078 L99.1364476,15.763078 C99.1364476,13.9704129 98.6534827,13.1221735 97.6645813,13.1221735 C96.4336372,13.1221735 95.9753248,14.4305321 95.9753248,16.8773765 L95.9753248,17.7981775 C95.9753248,20.2450219 96.4577294,21.5528181 97.7609502,21.5528181 C98.7985963,21.5528181 99.2328165,20.6562043 99.2328165,18.9124761 L102.104272,18.9124761 C102.104272,22.4736191 100.415016,23.9996625 97.7609502,23.9996625 C94.4547138,23.9996625 92.9587553,21.9161885 92.9587553,17.3374958 C92.9587553,12.758803 94.5275507,10.6758916 97.6645813,10.6758916 C100.366831,10.6758916 102.104272,12.201935 102.104272,15.763078 Z M110.718416,10.9661942 L113.807262,10.9661942 L110.042714,16.1506919 L114,23.7089099 L110.790693,23.7089099 L108.232996,18.4282259 L107.171258,19.736022 L107.171258,23.7089099 L104.275709,23.7089099 L104.275709,6.19400382 L107.171258,6.19400382 L107.171258,16.0297559 L110.718416,10.9661942 Z" id="Combined-Shape" fill="#FFFFFF"></path>
                <path d="M0,0 L27,0 L27,20.9999738 L24,20.9999738 L24,2.99999625 L3,2.99999625 L3,26.9988413 L18,26.9999663 L18,29.9999625 L0,29.9999625 L0,0 Z M9,21.0000112 L9,18.000015 L12,18.000015 L12,21.0000112 L9,21.0000112 Z M9,12.0000225 L9,9.00002625 L18,9.00002625 L18,12.0000225 L9,12.0000225 Z M16.5,13.5000206 L16.5,16.5000169 L9,16.5000169 L9,13.5000206 L16.5,13.5000206 Z M24,22.5000094 L27,22.5000094 L24,25.5000056 L22.50075,26.9992538 L19.5,30 L19.5,27.0000037 L19.5,26.9992538 L19.5,22.5000094 L24,22.5000094 Z" id="Combined-Shape" fill="#F1543A"></path>
            </g>
        </g>
    </g>
</svg>